<svg xmlns="http://www.w3.org/2000/svg" width="56" height="56" viewBox="0 0 56 56">
  <path id="パス_32" data-name="パス 32" d="M28,0A28,28,0,1,0,56,28,28,28,0,0,0,28,0ZM24.012,34.738V33.214a8.8,8.8,0,0,1,.976-4.357,12.514,12.514,0,0,1,3.414-3.6,18.7,18.7,0,0,0,3.744-3.476,5.128,5.128,0,0,0,.842-2.953,3.671,3.671,0,0,0-1.366-3.071,6.25,6.25,0,0,0-3.927-1.072,13.822,13.822,0,0,0-4.293.643,30.986,30.986,0,0,0-3.853,1.548L17.5,12.69A21.888,21.888,0,0,1,28.11,10a11.654,11.654,0,0,1,7.585,2.286A7.694,7.694,0,0,1,38.5,18.595a8.791,8.791,0,0,1-.537,3.179,9.073,9.073,0,0,1-1.622,2.655A25.955,25.955,0,0,1,32.6,27.714a14.183,14.183,0,0,0-3.037,2.881,5.433,5.433,0,0,0-.768,3.072v1.071Zm-1,7.6q0-3.594,3.586-3.6a3.258,3.258,0,0,1,3.609,3.6,3.73,3.73,0,0,1-.939,2.679A3.507,3.507,0,0,1,26.6,46a3.516,3.516,0,0,1-2.659-.964A3.742,3.742,0,0,1,23.012,42.333Z" fill="#f7f7f7"/>
</svg>
