<svg xmlns="http://www.w3.org/2000/svg" xmlns:xlink="http://www.w3.org/1999/xlink" width="200" height="45.419" viewBox="0 0 200 45.419">
  <defs>
    <clipPath id="clip-path">
      <rect id="長方形_1" data-name="長方形 1" width="200" height="45.419" fill="#f7f7f7"/>
    </clipPath>
  </defs>
  <g id="グループ_20" data-name="グループ 20" transform="translate(0 0)">
    <g id="グループ_1" data-name="グループ 1" transform="translate(0 0)" clip-path="url(#clip-path)">
      <path id="パス_1" data-name="パス 1" d="M37.128,44.738l-6-14.046H7.178L1.485,44.738H0L18.317,0h.99L38.613,44.738ZM18.873,1.918c-.124.433,1.547-4.208-11.2,27.474H30.506Z" transform="translate(0 0)" fill="#f7f7f7"/>
      <path id="パス_2" data-name="パス 2" d="M68.211,0h1.238V3.527H68.211Zm0,13.428h1.238V44.739H68.211Z" transform="translate(-26.565 0)" fill="#f7f7f7"/>
      <path id="パス_3" data-name="パス 3" d="M91.782,22.825c-5.26,0-7.8,3.96-8.663,7.859a21.178,21.178,0,0,0-.371,4.7V53.145H81.51V31.054c0-3.836,0-5.693-.124-9.22h1.238v7.24A9.469,9.469,0,0,1,92.4,21.587a9.353,9.353,0,0,1,1.857.124v1.3a11.13,11.13,0,0,0-2.475-.186" transform="translate(-31.696 -8.407)" fill="#f7f7f7"/>
      <path id="パス_4" data-name="パス 4" d="M128.586,53.668c-9.529,0-13.551-8.106-13.551-16.583,0-8.416,4.331-15.9,13.551-15.9,9.406,0,13.428,7.3,13.428,15.9,0,8.044-4.394,16.583-13.428,16.583m0-31.249c-8.23,0-12.314,6.993-12.314,14.727,0,7.673,3.96,15.284,12.314,15.284,8.106,0,12.19-7.673,12.19-15.284,0-7.858-3.961-14.727-12.19-14.727" transform="translate(-44.8 -8.249)" fill="#f7f7f7"/>
      <path id="パス_5" data-name="パス 5" d="M187.016,53.066V34.75c0-6.5-1.114-12.066-8.787-12.066-5.816,0-9.467,3.96-10.643,9.715a23.152,23.152,0,0,0-.309,4.7V53.066h-1.238V30.728c0-2.227,0-5.631-.124-8.973h1.238v8.787a11.215,11.215,0,0,1,10.829-9.158c6.126,0,10.272,3.033,10.272,11.819V53.066Z" transform="translate(-64.615 -8.328)" fill="#f7f7f7"/>
      <path id="パス_6" data-name="パス 6" d="M262.233,44.738l-6-14.046H232.283L226.59,44.738h-1.485L243.422,0h.99l19.306,44.738ZM243.978,1.918c-.124.433,1.547-4.208-11.2,27.474h22.833Z" transform="translate(-87.667 0)" fill="#f7f7f7"/>
      <path id="パス_7" data-name="パス 7" d="M293.316,0h1.238V3.527h-1.238Zm0,13.428h1.238V44.739h-1.238Z" transform="translate(-114.231 0)" fill="#f7f7f7"/>
      <path id="パス_8" data-name="パス 8" d="M316.887,22.825c-5.26,0-7.8,3.96-8.663,7.859a21.178,21.178,0,0,0-.371,4.7V53.145h-1.238V31.054c0-3.836,0-5.693-.124-9.22h1.238v7.24a9.469,9.469,0,0,1,9.777-7.487,9.353,9.353,0,0,1,1.857.124v1.3a11.13,11.13,0,0,0-2.475-.186" transform="translate(-119.362 -8.407)" fill="#f7f7f7"/>
    </g>
  </g>
</svg>
